<svg width="24" height="24" viewBox="0 0 24 24" fill="none" xmlns="http://www.w3.org/2000/svg">
<path d="M13.9196 8.97166C12.5059 8.9717 11.1395 9.46561 10.0708 10.3629C9.00215 11.2602 8.30276 12.5007 8.1008 13.8573H8.042C6.92824 13.8573 5.86008 14.2862 5.07253 15.0498C4.28498 15.8133 3.84253 16.8489 3.84253 17.9286C3.84253 19.0084 4.28498 20.044 5.07253 20.8075C5.86008 21.5711 6.92824 22 8.042 22H19.8005C20.9143 22 21.9824 21.5711 22.77 20.8075C23.5576 20.044 24 19.0084 24 17.9286C24 16.8489 23.5576 15.8133 22.77 15.0498C21.9824 14.2862 20.9143 13.8573 19.8005 13.8573H19.7384C19.5365 12.501 18.8373 11.2607 17.769 10.3634C16.7007 9.46618 15.3347 8.9721 13.9213 8.97166M13.5652 3.7929C13.617 3.69848 13.6491 3.59509 13.6598 3.48862C13.6704 3.38215 13.6593 3.2747 13.6271 3.1724C13.5949 3.0701 13.5422 2.97494 13.472 2.89238C13.4019 2.80981 13.3157 2.74145 13.2183 2.69119C13.1209 2.64094 13.0142 2.60977 12.9044 2.59947C12.7946 2.58917 12.6838 2.59994 12.5782 2.63117C12.4727 2.6624 12.3746 2.71347 12.2894 2.78147C12.2043 2.84947 12.1337 2.93307 12.0819 3.02749L11.3663 4.33521C11.2616 4.5259 11.2393 4.7491 11.3044 4.95571C11.3694 5.16232 11.5165 5.33541 11.7132 5.43691C11.9099 5.53841 12.1401 5.56001 12.3532 5.49694C12.5663 5.43387 12.7449 5.29131 12.8496 5.10062L13.5652 3.7929ZM7.22899 2.57638C7.19667 2.47405 7.14388 2.37889 7.07363 2.29633C7.00338 2.21378 6.91704 2.14545 6.81955 2.09524C6.72206 2.04503 6.61533 2.01394 6.50544 2.00372C6.39556 1.99351 6.28467 2.00437 6.17912 2.0357C6.07357 2.06704 5.97541 2.11822 5.89026 2.18632C5.80511 2.25443 5.73463 2.33813 5.68284 2.43265C5.63105 2.52716 5.59898 2.63064 5.58844 2.73717C5.5779 2.84371 5.58911 2.95121 5.62143 3.05354L6.06993 4.47037C6.13767 4.67393 6.2853 4.84348 6.48092 4.94238C6.67654 5.04128 6.90444 5.06158 7.11538 4.9989C7.32632 4.93623 7.50334 4.7956 7.60821 4.60742C7.71308 4.41924 7.73736 4.19861 7.67581 3.99321L7.22899 2.57638ZM3.84253 10.6002C3.84253 11.5838 4.14322 12.4991 4.65891 13.2661C5.27539 12.8443 5.9809 12.5333 6.74185 12.3688C7.17841 11.0951 7.96665 9.96168 9.02092 9.09174C10.0752 8.2218 11.3552 7.64857 12.7219 7.43432C12.0538 6.67218 11.1606 6.12718 10.1628 5.87296C9.16499 5.61874 8.11076 5.66754 7.1425 6.01277C6.17424 6.358 5.3386 6.98302 4.74845 7.80341C4.15831 8.62379 3.8421 9.60002 3.84253 10.6002ZM1.86038 6.06309C1.76299 6.01283 1.65634 5.98166 1.54653 5.97136C1.43671 5.96106 1.32588 5.97184 1.22035 6.00306C1.11483 6.03429 1.01669 6.08536 0.931523 6.15336C0.846359 6.22136 0.775845 6.30496 0.724005 6.39938C0.672166 6.4938 0.640017 6.5972 0.629394 6.70366C0.618771 6.81013 0.629881 6.91758 0.662092 7.01989C0.694302 7.12219 0.746982 7.21734 0.817122 7.2999C0.887262 7.38247 0.97349 7.45083 1.07088 7.50109L2.41975 8.19485C2.61644 8.29635 2.84667 8.31794 3.05978 8.25487C3.27289 8.19181 3.45143 8.04925 3.55613 7.85856C3.66082 7.66787 3.68309 7.44466 3.61804 7.23805C3.55299 7.03144 3.40594 6.85835 3.20925 6.75685L1.86038 6.06309ZM2.55917 13.3313C2.76914 13.2656 2.94402 13.1225 3.04603 12.9328C3.14804 12.7432 3.16899 12.5222 3.10434 12.3177C3.03969 12.1132 2.89464 11.9416 2.70053 11.8399C2.50643 11.7383 2.27886 11.7147 2.067 11.7744L0.60558 12.2076C0.498667 12.2377 0.398997 12.2881 0.312364 12.3559C0.225732 12.4237 0.153866 12.5075 0.100947 12.6025C0.0480275 12.6974 0.0151105 12.8017 0.00411001 12.9091C-0.00689051 13.0165 0.00424509 13.1249 0.0368691 13.2281C0.0694932 13.3313 0.122955 13.4272 0.194144 13.5102C0.265334 13.5932 0.352832 13.6616 0.451549 13.7115C0.550267 13.7614 0.658233 13.7918 0.769171 13.8009C0.880108 13.81 0.991802 13.7976 1.09776 13.7645L2.55917 13.3313Z" fill="#1E1E1E"/>
</svg>
