<svg width="24" height="24" viewBox="0 0 24 24" fill="none" xmlns="http://www.w3.org/2000/svg">
<path d="M13.3755 8C16.7647 8 18.6868 10.0987 18.9659 12.632H19.0512C21.2318 12.632 23 14.2813 23 16.316C23 18.3507 21.2318 20 19.0512 20H7.69975C5.5191 20 3.75094 18.3507 3.75094 16.316C3.75094 14.2813 5.5191 12.632 7.69975 12.632H7.78499C8.06685 10.0813 9.98626 8 13.3755 8ZM9.78964 4C11.7915 4 13.5377 5.104 14.3998 6.72667C14.06 6.68607 13.7179 6.66603 13.3755 6.66667C10.0894 6.66667 7.69425 8.40933 6.83904 11.048L6.75379 11.3333L6.69054 11.5827L6.46368 11.6227C5.63318 11.7862 4.85742 12.1468 4.20576 12.6722C3.5541 13.1976 3.04685 13.8714 2.72936 14.6333C2.07436 14.2463 1.5637 13.6668 1.27162 12.9791C0.979547 12.2913 0.921275 11.5312 1.10528 10.8091C1.28928 10.087 1.70597 9.4407 2.29477 8.96404C2.88357 8.48738 3.61379 8.20525 4.37928 8.15867L4.68452 8.152C4.89653 6.98844 5.52446 5.93449 6.45804 5.17521C7.39162 4.41593 8.57119 3.99984 9.78964 4Z" fill="#1E1E1E"/>
</svg>
