<svg width="24" height="24" viewBox="0 0 24 24" fill="none" xmlns="http://www.w3.org/2000/svg">
<path d="M0.358362 12.5832C-0.119454 12.1182 -0.119454 11.3645 0.358362 10.8995L5.54933 5.84869C6.02714 5.38377 6.80184 5.38377 7.27965 5.84869C7.75747 6.31361 7.75747 7.06739 7.27965 7.5323L2.08868 12.5832C1.61087 13.0481 0.836177 13.0481 0.358362 12.5832Z" fill="black"/>
<path d="M8.92302 15.1751C8.44521 14.7102 8.44521 13.9564 8.92302 13.4915L14.114 8.44061C14.5918 7.97569 15.3665 7.97569 15.8443 8.44061C16.3221 8.90553 16.3221 9.65931 15.8443 10.1242L10.6533 15.1751C10.1755 15.64 9.40084 15.64 8.92302 15.1751Z" fill="black"/>
<path d="M11.3701 18.1513C10.8923 17.6864 10.8923 16.9326 11.3701 16.4677L17.4262 10.575C17.904 10.1101 18.6787 10.1101 19.1565 10.575C19.6343 11.04 19.6343 11.7937 19.1565 12.2587L13.1004 18.1513C12.6226 18.6162 11.8479 18.6162 11.3701 18.1513Z" fill="black"/>
<path d="M18.4507 16.2704C17.9729 15.8055 17.9729 15.0517 18.4507 14.5868L21.9113 11.2195C22.3891 10.7546 23.1638 10.7546 23.6416 11.2195C24.1195 11.6844 24.1195 12.4382 23.6416 12.9031L20.181 16.2704C19.7032 16.7353 18.9285 16.7353 18.4507 16.2704Z" fill="black"/>
<path d="M6.93172 17.1126C6.4539 16.6477 6.4539 15.8939 6.93172 15.429C7.40953 14.9641 8.18422 14.9641 8.66204 15.429C9.13985 15.8939 9.13985 16.6477 8.66204 17.1126C8.18422 17.5776 7.40953 17.5776 6.93172 17.1126Z" fill="black"/>
<path d="M19.323 10.1242C18.8452 9.65931 18.8452 8.90553 19.323 8.44061L20.1881 7.5988C20.6659 7.13389 21.4406 7.13389 21.9184 7.5988C22.3963 8.06372 22.3963 8.8175 21.9184 9.28242L21.0533 10.1242C20.5755 10.5891 19.8008 10.5891 19.323 10.1242Z" fill="black"/>
<path d="M0.358362 17.8449C-0.119454 17.38 -0.119454 16.6262 0.358362 16.1613L10.7403 6.05962C11.2181 5.5947 11.9928 5.5947 12.4706 6.05962C12.9484 6.52454 12.9484 7.27832 12.4706 7.74323L2.08868 17.8449C1.61087 18.3098 0.836177 18.3098 0.358362 17.8449Z" fill="black"/>
</svg>
