<svg width="24" height="24" viewBox="0 0 24 24" fill="none" xmlns="http://www.w3.org/2000/svg">
<path d="M12.0254 1C12.2073 1 12.3818 1.07243 12.5104 1.20136C12.639 1.3303 12.7113 1.50516 12.7113 1.6875V3.0625C12.7113 3.24484 12.639 3.4197 12.5104 3.54864C12.3818 3.67757 12.2073 3.75 12.0254 3.75C11.8435 3.75 11.669 3.67757 11.5404 3.54864C11.4117 3.4197 11.3395 3.24484 11.3395 3.0625V1.6875C11.3395 1.50516 11.4117 1.3303 11.5404 1.20136C11.669 1.07243 11.8435 1 12.0254 1ZM17.5127 12C17.5127 13.4587 16.9346 14.8576 15.9055 15.8891C14.8764 16.9205 13.4807 17.5 12.0254 17.5C10.5701 17.5 9.17433 16.9205 8.14526 15.8891C7.11619 14.8576 6.53807 13.4587 6.53807 12C6.53807 10.5413 7.11619 9.14236 8.14526 8.11091C9.17433 7.07946 10.5701 6.5 12.0254 6.5C13.4807 6.5 14.8764 7.07946 15.9055 8.11091C16.9346 9.14236 17.5127 10.5413 17.5127 12ZM22.3141 12.6875C22.496 12.6875 22.6705 12.6151 22.7991 12.4861C22.9277 12.3572 23 12.1823 23 12C23 11.8177 22.9277 11.6428 22.7991 11.5139C22.6705 11.3849 22.496 11.3125 22.3141 11.3125H20.9423C20.7603 11.3125 20.5859 11.3849 20.4572 11.5139C20.3286 11.6428 20.2563 11.8177 20.2563 12C20.2563 12.1823 20.3286 12.3572 20.4572 12.4861C20.5859 12.6151 20.7603 12.6875 20.9423 12.6875H22.3141ZM12.0254 20.25C12.2073 20.25 12.3818 20.3224 12.5104 20.4514C12.639 20.5803 12.7113 20.7552 12.7113 20.9375V22.3125C12.7113 22.4948 12.639 22.6697 12.5104 22.7986C12.3818 22.9276 12.2073 23 12.0254 23C11.8435 23 11.669 22.9276 11.5404 22.7986C11.4117 22.6697 11.3395 22.4948 11.3395 22.3125V20.9375C11.3395 20.7552 11.4117 20.5803 11.5404 20.4514C11.669 20.3224 11.8435 20.25 12.0254 20.25ZM3.1085 12.6875C3.29041 12.6875 3.46488 12.6151 3.59351 12.4861C3.72215 12.3572 3.79441 12.1823 3.79441 12C3.79441 11.8177 3.72215 11.6428 3.59351 11.5139C3.46488 11.3849 3.29041 11.3125 3.1085 11.3125H1.68591C1.504 11.3125 1.32953 11.3849 1.2009 11.5139C1.07227 11.6428 1 11.8177 1 12C1 12.1823 1.07227 12.3572 1.2009 12.4861C1.32953 12.6151 1.504 12.6875 1.68591 12.6875H3.1085ZM3.9947 3.95075C4.05841 3.88673 4.13411 3.83593 4.21744 3.80127C4.30077 3.76661 4.39011 3.74877 4.48033 3.74877C4.57055 3.74877 4.65988 3.76661 4.74321 3.80127C4.82655 3.83593 4.90224 3.88673 4.96595 3.95075L6.33778 5.32575C6.46658 5.45484 6.53894 5.62993 6.53894 5.8125C6.53894 5.99507 6.46658 6.17016 6.33778 6.29925C6.20898 6.42834 6.0343 6.50087 5.85215 6.50087C5.67001 6.50087 5.49532 6.42834 5.36653 6.29925L3.9947 4.92425C3.93082 4.86039 3.88014 4.78452 3.84556 4.701C3.81099 4.61747 3.79319 4.52793 3.79319 4.4375C3.79319 4.34707 3.81099 4.25753 3.84556 4.174C3.88014 4.09048 3.93082 4.01461 3.9947 3.95075ZM4.96595 20.0493C4.83716 20.1783 4.66247 20.2509 4.48033 20.2509C4.29818 20.2509 4.1235 20.1783 3.9947 20.0493C3.8659 19.9202 3.79355 19.7451 3.79355 19.5625C3.79355 19.3799 3.8659 19.2048 3.9947 19.0757L5.36653 17.7007C5.49532 17.5717 5.67001 17.4991 5.85215 17.4991C6.0343 17.4991 6.20898 17.5717 6.33778 17.7007C6.46658 17.8298 6.53894 18.0049 6.53894 18.1875C6.53894 18.3701 6.46658 18.5452 6.33778 18.6743L4.96595 20.0493ZM20.0561 3.95075C19.9923 3.88673 19.9166 3.83593 19.8333 3.80127C19.75 3.76661 19.6607 3.74877 19.5704 3.74877C19.4802 3.74877 19.3909 3.76661 19.3075 3.80127C19.2242 3.83593 19.1485 3.88673 19.0848 3.95075L17.713 5.32575C17.5842 5.45484 17.5118 5.62993 17.5118 5.8125C17.5118 5.99507 17.5842 6.17016 17.713 6.29925C17.8418 6.42834 18.0165 6.50087 18.1986 6.50087C18.3807 6.50087 18.5554 6.42834 18.6842 6.29925L20.0561 4.92425C20.1199 4.86039 20.1706 4.78452 20.2052 4.701C20.2398 4.61747 20.2576 4.52793 20.2576 4.4375C20.2576 4.34707 20.2398 4.25753 20.2052 4.174C20.1706 4.09048 20.1199 4.01461 20.0561 3.95075ZM19.0848 20.0493C19.2136 20.1783 19.3883 20.2509 19.5704 20.2509C19.7526 20.2509 19.9273 20.1783 20.0561 20.0493C20.1849 19.9202 20.2572 19.7451 20.2572 19.5625C20.2572 19.3799 20.1849 19.2048 20.0561 19.0757L18.6842 17.7007C18.5554 17.5717 18.3807 17.4991 18.1986 17.4991C18.0165 17.4991 17.8418 17.5717 17.713 17.7007C17.5842 17.8298 17.5118 18.0049 17.5118 18.1875C17.5118 18.3701 17.5842 18.5452 17.713 18.6743L19.0848 20.0493Z" fill="#1E1E1E"/>
</svg>
