<svg width="24" height="24" viewBox="0 0 24 24" fill="none" xmlns="http://www.w3.org/2000/svg">
<path d="M6.1095 6.23819C6.36659 4.9545 7.08818 3.8127 8.13428 3.03434C9.18037 2.25599 10.4764 1.89656 11.7708 2.0258C13.0653 2.15504 14.2659 2.76373 15.1398 3.73378C16.0136 4.70383 16.4984 5.96606 16.5 7.27559C16.5002 7.96977 16.3645 8.65719 16.1008 9.29859C15.837 9.93999 15.4504 10.5228 14.9628 11.0137C14.4753 11.5047 13.8965 11.8941 13.2594 12.1598C12.6224 12.4255 11.9396 12.5622 11.25 12.5622H1.125C0.826631 12.5622 0.540483 12.4429 0.329505 12.2305C0.118526 12.0181 0 11.7301 0 11.4297C0 11.1293 0.118526 10.8413 0.329505 10.6289C0.540483 10.4165 0.826631 10.2972 1.125 10.2972H11.25C12.0292 10.2728 12.7685 9.94408 13.3112 9.38069C13.854 8.81729 14.1577 8.0634 14.1581 7.27856C14.1585 6.49372 13.8556 5.73953 13.3133 5.17558C12.7711 4.61164 12.0322 4.28222 11.253 4.25702C9.825 4.25702 8.595 5.27176 8.316 6.68214L8.2275 7.12156C8.16049 7.40733 7.98586 7.65573 7.74043 7.81437C7.495 7.97301 7.19796 8.0295 6.91196 7.97191C6.62596 7.91433 6.37335 7.74718 6.20741 7.50571C6.04147 7.26425 5.97517 6.96734 6.0225 6.67761L6.1095 6.23819ZM17.04 11.5868C17.4108 10.8425 18.0201 10.246 18.7694 9.89352C19.5187 9.54109 20.3642 9.4534 21.1691 9.64463C21.974 9.83586 22.6914 10.2948 23.2051 10.9473C23.7188 11.5998 23.9989 12.4077 24 13.2403V13.3173C24 14.3185 23.6049 15.2787 22.9017 15.9867C22.1984 16.6946 21.2446 17.0924 20.25 17.0924H18.876C19.0892 17.6368 19.1669 18.2255 19.1025 18.8071C19.0381 19.3888 18.8334 19.9457 18.5063 20.4296C18.1792 20.9134 17.7396 21.3094 17.2257 21.5831C16.7119 21.8568 16.1393 21.9999 15.558 22C14.9709 22.0006 14.3927 21.8553 13.8746 21.5772C13.3565 21.299 12.9146 20.8966 12.588 20.4054L12.5655 20.3692C12.4782 20.2458 12.4163 20.106 12.3836 19.9581C12.3509 19.8102 12.348 19.6572 12.375 19.5081C12.4021 19.3591 12.4586 19.217 12.5412 19.0904C12.6238 18.9637 12.7308 18.855 12.8559 18.7708C12.981 18.6865 13.1216 18.6283 13.2694 18.5997C13.4172 18.5711 13.5692 18.5727 13.7164 18.6043C13.8636 18.6359 14.003 18.6969 14.1263 18.7838C14.2497 18.8706 14.3545 18.9815 14.4345 19.1098L14.4585 19.146C14.703 19.513 15.117 19.7349 15.558 19.7349C15.7304 19.7352 15.9011 19.7014 16.0604 19.6352C16.2198 19.5691 16.3647 19.472 16.4867 19.3495C16.6088 19.2271 16.7057 19.0816 16.772 18.9214C16.8382 18.7612 16.8725 18.5894 16.8728 18.4159C16.873 18.2424 16.8394 18.0705 16.7737 17.9101C16.708 17.7497 16.6116 17.6039 16.4899 17.481C16.3683 17.3581 16.2237 17.2605 16.0646 17.1938C15.9055 17.1271 15.7349 17.0927 15.5625 17.0924H1.125C0.826631 17.0924 0.540483 16.973 0.329505 16.7607C0.118526 16.5483 0 16.2602 0 15.9598C0 15.6595 0.118526 15.3714 0.329505 15.159C0.540483 14.9466 0.826631 14.8273 1.125 14.8273H20.25C20.6478 14.8273 21.0294 14.6682 21.3107 14.385C21.592 14.1018 21.75 13.7178 21.75 13.3173V13.2418C21.7496 12.919 21.641 12.6058 21.4419 12.3528C21.2428 12.0998 20.9647 11.9218 20.6526 11.8476C20.3406 11.7733 20.0128 11.8072 19.7222 11.9438C19.4317 12.0803 19.1954 12.3115 19.0515 12.6L19.0065 12.6906C18.9412 12.8248 18.8502 12.9447 18.7386 13.0434C18.6271 13.1421 18.4973 13.2175 18.3566 13.2654C18.216 13.3133 18.0673 13.3327 17.9192 13.3225C17.7711 13.3123 17.6264 13.2726 17.4936 13.2059C17.3607 13.1391 17.2423 13.0465 17.1452 12.9335C17.0481 12.8204 16.9741 12.6892 16.9277 12.5472C16.8812 12.4053 16.8631 12.2554 16.8744 12.1064C16.8857 11.9574 16.9262 11.8121 16.9935 11.6789L17.04 11.5868Z" fill="#1E1E1E"/>
</svg>
