<svg width="49" height="66" viewBox="0 0 49 66" fill="none" xmlns="http://www.w3.org/2000/svg">
<g clip-path="url(#clip0_1067_39471)">
<g clip-path="url(#clip1_1067_39471)">
<g clip-path="url(#clip2_1067_39471)">
<path d="M47.7547 36.5288C46.8284 35.2763 45.5347 34.6425 43.9147 34.6425C43.5434 34.6425 43.1984 34.6763 42.8797 34.71C45.1972 30.0713 45.2234 24.3675 40.9822 20.7713C39.4784 19.5 37.2884 18.825 36.0322 17.31C34.7347 15.7463 34.4384 13.2938 33.0659 11.6288C31.7872 10.08 30.0884 9.00379 28.2022 8.34004C24.6809 7.09879 20.4322 7.35754 17.0722 9.12754C16.7647 8.81629 16.4722 8.49004 16.1947 8.14504L15.9809 7.88254C15.8797 7.75879 15.7522 7.60879 15.7034 7.53004L15.6959 7.45504C15.6809 7.23754 15.6847 6.96754 15.6884 6.68254C15.6959 5.30254 15.7147 2.73754 13.3522 1.33879C12.6801 0.940182 11.9135 0.7291 11.1322 0.727539C9.32842 0.727539 7.54717 1.87129 6.59467 3.64504C6.17842 4.41754 5.95342 4.51879 5.35717 4.62754C3.82717 4.90504 2.51842 5.98129 1.85092 7.50754C1.17592 9.04879 1.27717 10.77 2.12467 12.1088C3.63592 14.4938 6.02467 14.4938 6.80842 14.4938C7.07842 14.4938 7.35217 14.4825 7.62592 14.4713C7.83967 14.4638 8.05717 14.4525 8.27092 14.4525C8.81842 14.4525 8.97592 14.52 9.05092 14.5725C9.22342 14.6963 9.42217 14.9663 9.65092 15.2775C9.75217 15.42 9.86842 15.57 9.99217 15.7275C8.78092 17.6663 7.98967 19.8263 7.88842 22.1025C7.67467 26.8688 9.96217 31.7025 14.5372 33.5175C17.1997 34.575 18.6659 34.3163 19.6597 37.3163C20.0722 38.5613 20.7659 39.7538 21.8347 40.56C25.6297 43.41 31.1459 43.3163 35.6909 41.3138L35.7809 41.4113L35.9609 41.5988C35.9872 41.8013 35.9984 41.9888 36.0097 42.18C36.0922 43.4138 36.2422 45.7163 38.5072 46.8413C39.0809 47.1263 39.6847 47.2688 40.3109 47.2688C42.0584 47.2688 43.7647 46.0763 44.5559 44.3025C44.8147 43.7288 44.9047 43.7025 45.2984 43.6013C46.6897 43.2413 47.8222 42.165 48.3284 40.725C48.8384 39.2738 48.6247 37.7025 47.7547 36.5288ZM17.3347 15.33C16.8134 15.9825 15.8909 16.74 15.0059 16.74C14.7059 16.74 14.4134 16.6538 14.1397 16.4475C13.4384 15.9263 12.6172 15.2063 12.0509 14.5463C11.8297 14.2875 11.6384 14.0175 11.4397 13.7513C11.1472 13.3538 10.8434 12.9675 10.4159 12.6638C9.76342 12.195 9.02092 12.105 8.26717 12.105C7.77967 12.105 7.28467 12.1425 6.80467 12.1425C5.77717 12.1425 4.81342 11.9663 4.10842 10.8525C3.20467 9.42379 4.14592 7.23754 5.77717 6.94129C7.19092 6.68254 7.96717 6.05254 8.66092 4.75879C9.15592 3.84379 10.1197 3.07879 11.1284 3.07879C11.4697 3.07879 11.8147 3.16504 12.1522 3.36379C13.6597 4.25629 13.2584 6.14254 13.3484 7.60504C13.4084 8.56504 13.7872 8.90254 14.3647 9.62254C14.5859 9.89629 14.8184 10.1475 15.0509 10.3988C15.4784 10.8638 15.9172 11.3063 16.4084 11.7225C17.5859 12.7313 18.5122 13.86 17.3347 15.33ZM44.7022 41.3325C43.5247 41.6363 42.9097 42.2175 42.4034 43.3463C42.0284 44.19 41.2034 44.9213 40.3034 44.9213C40.0559 44.9213 39.8009 44.865 39.5459 44.7413C38.2222 44.0813 38.4434 42.465 38.2784 41.2388C38.2109 40.7475 38.0497 40.4588 37.8172 40.1775C39.1784 39.3263 40.3859 38.295 41.3497 37.11C41.5184 37.1325 41.6909 37.1513 41.8634 37.1513C42.5459 37.1513 43.2509 36.9938 43.9147 36.9938C44.6347 36.9938 45.3059 37.1738 45.8684 37.9313C46.7197 39.0788 46.0597 40.98 44.7022 41.3325Z" fill="black"/>
</g>
</g>
<path d="M23.2305 54.3398V55.3477C23.2305 56.6836 23.2305 58.1836 22.7969 60.4453L21.2969 60.293C21.7012 58.2773 21.7188 56.7773 21.7305 55.5234H15.4492V54.3398H23.2305ZM24.168 61.5586V62.7773H14.4414V61.5586H17.9219V57.8906H19.4102V61.5586H24.168ZM33.7773 53.4141V64.0781H32.2656V53.4141H33.7773ZM30.5781 54.5273C30.5781 57.7617 29.4414 60.4453 25.6328 62.25L24.8477 61.0547C27.6016 59.7539 28.8145 58.0664 29.0547 55.6992H25.4219V54.5273H30.5781Z" fill="black"/>
</g>
<defs>
<clipPath id="clip0_1067_39471">
<rect width="48" height="66" fill="white" transform="translate(0.625)"/>
</clipPath>
<clipPath id="clip1_1067_39471">
<rect width="48" height="48" fill="white" transform="translate(0.625)"/>
</clipPath>
<clipPath id="clip2_1067_39471">
<rect width="48" height="48" fill="white" transform="translate(1)"/>
</clipPath>
</defs>
</svg>
