<svg width="49" height="66" viewBox="0 0 49 66" fill="none" xmlns="http://www.w3.org/2000/svg">
<g clip-path="url(#clip0_287_28931)">
<g clip-path="url(#clip1_287_28931)">
<path d="M6.68577 17.0754C4.33364 18.6115 2.56085 20.9248 1.65935 23.6343C0.757858 26.3438 0.781414 29.2879 1.72614 31.9818C2.67087 34.6757 4.48044 36.9587 6.85683 38.4549C9.23322 39.9511 12.0347 40.5712 14.8 40.213L14.2623 35.831C12.4662 36.0636 10.6466 35.6608 9.10315 34.689C7.55967 33.7173 6.38433 32.2344 5.77072 30.4847C5.15711 28.735 5.14181 26.8227 5.72734 25.0629C6.31287 23.3031 7.46432 21.8006 8.99205 20.8028L6.68577 17.0754Z" fill="black"/>
<path d="M43.3142 17.0754C45.6664 18.6115 47.4391 20.9248 48.3406 23.6343C49.2421 26.3438 49.2186 29.2879 48.2739 31.9818C47.3291 34.6757 45.5196 36.9587 43.1432 38.4549C40.7668 39.9511 37.9653 40.5712 35.2 40.213L35.7377 35.831C37.5338 36.0636 39.3534 35.6608 40.8968 34.689C42.4403 33.7173 43.6157 32.2344 44.2293 30.4847C44.8429 28.735 44.8582 26.8227 44.2727 25.0629C43.6871 23.3031 42.5357 21.8006 41.0079 20.8028L43.3142 17.0754Z" fill="black"/>
<path d="M12.5374 38.1772C13.152 40.9701 14.6741 43.4647 16.8531 45.2502C19.032 47.0356 21.7378 48.0055 24.525 48C27.3121 47.9945 30.0143 47.014 32.1865 45.2199C34.3588 43.4259 35.8715 40.9253 36.4757 38.1299L32.2787 37.1725C31.8863 38.9881 30.9038 40.6122 29.4929 41.7774C28.082 42.9427 26.3269 43.5795 24.5167 43.5831C22.7065 43.5867 20.949 42.9568 19.5338 41.7971C18.1186 40.6375 17.13 39.0172 16.7308 37.2032L12.5374 38.1772Z" fill="black"/>
<path d="M14.7955 1.38429e-05L18.8667 0.648411L15.3759 22.8113L11.3047 22.163L14.7955 1.38429e-05Z" fill="black"/>
<path d="M31.2493 0.648397L35.3204 0L38.8113 22.1629L34.7401 22.8113L31.2493 0.648397Z" fill="black"/>
<path d="M22.8061 8.42341H26.928V30.8626H22.8061V8.42341Z" fill="black"/>
<path d="M14.1191 39.201C14.0741 39.2349 14.0101 39.2007 14.0129 39.1442L14.1725 35.9058C14.1749 35.8569 14.2271 35.8271 14.2701 35.8501L16.691 37.1445C16.734 37.1675 16.7387 37.2276 16.6997 37.257L14.1191 39.201Z" fill="black"/>
<path d="M35.3438 39.7667C35.3373 39.8198 35.2744 39.8441 35.2342 39.809L32.2948 37.2422C32.2569 37.2091 32.2677 37.1474 32.3145 37.1293L35.7304 35.8107C35.7773 35.7927 35.8264 35.8313 35.8203 35.8813L35.3438 39.7667Z" fill="black"/>
</g>
<path d="M9.55469 54.8203C9.55469 56.3789 10.9375 58.0547 13.3516 58.4648L12.6953 59.707C10.8379 59.3379 9.45508 58.2949 8.76953 56.918C8.06055 58.2832 6.67773 59.332 4.83203 59.707L4.1875 58.4648C6.55469 58.043 7.94922 56.3672 7.96094 54.8203V54.0469H9.55469V54.8203ZM13.7031 61.5352V62.7656H3.94141V61.5352H13.7031ZM20.0664 54.0234V55.2188H16.3984V56.0508H19.75V57.1992H16.3984V58.0781C18.2734 58.0723 19.4629 58.043 20.8164 57.8203L20.9688 58.9805C19.4453 59.2383 18.0977 59.2617 15.8125 59.2617H14.8984V54.0234H20.0664ZM23.2422 53.4258V59.7539H21.7422V53.4258H23.2422ZM23.2422 60.1875V63.9609H16.0938V60.1875H23.2422ZM17.5703 61.3477V62.7656H21.7773V61.3477H17.5703ZM28.1055 56.0977C28.1055 57.8203 28.5859 59.6016 30.0391 60.5391L29.2305 61.6992C28.3105 61.1426 27.7246 60.2285 27.3906 59.1328C27.0039 60.3398 26.3652 61.3477 25.3984 61.9336L24.4844 60.832C26.0664 59.8477 26.6523 57.9727 26.6523 56.168V54.3281H28.1055V56.0977ZM33.9297 53.4141V64.0781H32.5V53.4141H33.9297ZM31.6914 53.5664V63.5859H30.2969V58.2305H28.9141V57.0117H30.2969V53.5664H31.6914ZM38.9102 56.7539C38.9102 58.2656 39.6953 59.9883 41.3945 60.7852L40.5625 61.9102C39.4258 61.4004 38.6348 60.3926 38.1836 59.2031C37.7266 60.4863 36.8828 61.5703 35.6758 62.0977L34.8555 60.9375C36.5898 60.1758 37.4219 58.3594 37.4336 56.7539V56.3438H35.2305V55.1484H37.4219V53.6484H38.9219V55.1484H41.0898V56.3438H38.9102V56.7539ZM43.4688 53.4141V57.5508H45.0391V58.8047H43.4688V64.0781H41.9688V53.4141H43.4688Z" fill="black"/>
</g>
<defs>
<clipPath id="clip0_287_28931">
<rect width="48" height="66" fill="white" transform="translate(0.625)"/>
</clipPath>
<clipPath id="clip1_287_28931">
<rect width="48" height="48" fill="white" transform="translate(0.625)"/>
</clipPath>
</defs>
</svg>
