<svg width="49" height="66" viewBox="0 0 49 66" fill="none" xmlns="http://www.w3.org/2000/svg">
<g clip-path="url(#clip0_1074_46472)">
<g clip-path="url(#clip1_1074_46472)">
<g clip-path="url(#clip2_1074_46472)">
<path fill-rule="evenodd" clip-rule="evenodd" d="M48.5736 2.0676C48.7068 2.7359 48.5693 3.42977 48.1913 3.99678C47.8133 4.56379 47.2257 4.95756 46.5576 5.0916L29.4147 8.52017C28.7569 8.62834 28.0828 8.47681 27.5345 8.09752C26.9862 7.71823 26.6067 7.14084 26.476 6.48712C26.3452 5.8334 26.4735 5.15445 26.8337 4.59347C27.1939 4.0325 27.7579 3.63333 28.4067 3.48017L45.5496 0.0516008C46.2179 -0.0816485 46.9117 0.0558294 47.4788 0.433834C48.0458 0.811839 48.4395 1.39946 48.5736 2.0676ZM15.1964 11.143H16.0536C16.7356 11.143 17.3896 10.8721 17.8718 10.3899C18.3541 9.90764 18.625 9.25359 18.625 8.5716C18.625 7.88962 18.3541 7.23556 17.8718 6.75333C17.3896 6.27109 16.7356 6.00017 16.0536 6.00017H9.19643C8.51444 6.00017 7.86039 6.27109 7.37815 6.75333C6.89592 7.23556 6.625 7.88962 6.625 8.5716C6.625 9.25359 6.89592 9.90764 7.37815 10.3899C7.86039 10.8721 8.51444 11.143 9.19643 11.143H10.0536V15.4287H5.76786C4.40389 15.4287 3.09578 15.9706 2.13131 16.9351C1.16684 17.8995 0.625 19.2076 0.625 20.5716L0.625 42.8573C0.625 44.2213 1.16684 45.5294 2.13131 46.4939C3.09578 47.4583 4.40389 48.0002 5.76786 48.0002H19.4821C20.8461 48.0002 22.1542 47.4583 23.1187 46.4939C24.0832 45.5294 24.625 44.2213 24.625 42.8573V20.5716C24.625 19.2076 24.0832 17.8995 23.1187 16.9351C22.1542 15.9706 20.8461 15.4287 19.4821 15.4287H15.1964V11.143ZM29.4147 10.3373C28.7569 10.2291 28.0828 10.3807 27.5345 10.76C26.9862 11.1393 26.6067 11.7167 26.476 12.3704C26.3452 13.0241 26.4735 13.703 26.8337 14.264C27.1939 14.825 27.7579 15.2242 28.4067 15.3773L45.5496 18.8059C45.8855 18.8852 46.2339 18.896 46.5741 18.8378C46.9143 18.7796 47.2393 18.6535 47.5297 18.467C47.8201 18.2805 48.07 18.0375 48.2645 17.7524C48.459 17.4673 48.5941 17.146 48.6618 16.8075C48.7295 16.4691 48.7284 16.1205 48.6585 15.7825C48.5886 15.4445 48.4514 15.1241 48.255 14.8403C48.0587 14.5564 47.8072 14.315 47.5156 14.1305C47.2239 13.9459 46.8981 13.8219 46.5576 13.7659L29.4147 10.3373Z" fill="#1E1E1E"/>
</g>
</g>
<path d="M7.39844 54.0469C9.08594 54.0469 10.3516 55.125 10.3516 56.6602C10.3516 57.9609 9.44336 58.9336 8.13672 59.2031V60.6328C9.03906 60.5859 9.94727 60.5039 10.8086 60.3867L10.9258 61.4648C8.55859 61.9102 6.02734 61.9336 4.16406 61.9336L3.98828 60.7266C4.77344 60.7266 5.6875 60.7207 6.64844 60.6914V59.1914C5.34766 58.9277 4.43359 57.9551 4.43359 56.6602C4.43359 55.125 5.71094 54.0469 7.39844 54.0469ZM7.39844 55.3242C6.55469 55.3242 5.91016 55.8047 5.92188 56.6602C5.91016 57.4922 6.55469 57.9961 7.39844 57.9961C8.25391 57.9961 8.88672 57.4922 8.89844 56.6602C8.88672 55.8047 8.24219 55.3242 7.39844 55.3242ZM12.9062 53.4141V64.1016H11.418V53.4141H12.9062ZM20.2656 54.3984V55.582H14.3359V54.3984H16.6328V53.3203H18.1211V54.3984H20.2656ZM17.3594 55.9336C18.8242 55.9453 19.8789 56.7539 19.8906 57.9375C19.8789 59.1328 18.8242 59.9297 17.3594 59.918C15.8828 59.9297 14.8516 59.1328 14.8633 57.9375C14.8516 56.7539 15.8828 55.9453 17.3594 55.9336ZM17.3594 57.0469C16.6797 57.0469 16.2461 57.3633 16.2578 57.9375C16.2461 58.5117 16.6797 58.8164 17.3594 58.8164C18.0273 58.8164 18.4961 58.5117 18.4961 57.9375C18.4961 57.3633 18.0273 57.0469 17.3594 57.0469ZM23.3008 53.4141V60.2109H21.8125V59.0859H20.3594V57.8906H21.8125V56.9531H20.3828V55.7578H21.8125V53.4141H23.3008ZM19.6797 60.3398C21.9414 60.3398 23.3594 61.0312 23.3594 62.2148C23.3594 63.375 21.9414 64.0781 19.6797 64.0781C17.4062 64.0781 16 63.375 16 62.2148C16 61.0312 17.4062 60.3398 19.6797 60.3398ZM19.6797 61.4648C18.3203 61.4766 17.5703 61.7109 17.5703 62.2148C17.5703 62.6953 18.3203 62.9531 19.6797 62.9531C21.0156 62.9531 21.7539 62.6953 21.7539 62.2148C21.7539 61.7109 21.0156 61.4766 19.6797 61.4648ZM34.4102 58.6992V59.9062H24.6836V58.6992H28.7852V57.7969H25.9258V53.6719H27.4023V54.6445H31.6797V53.6719H33.168V57.7969H30.2852V58.6992H34.4102ZM33.2266 60.6328V64.0781H31.7383V61.8164H25.7617V60.6328H33.2266ZM27.4023 56.625H31.6797V55.7461H27.4023V56.625ZM44.0898 53.4258V61.4766H42.5898V60.6328H40.5508V59.6133H42.5898V53.4258H44.0898ZM44.3242 62.6953V63.8906H36.3789V60.7031H37.8672V59.2852C36.9121 59.3262 36.0039 59.332 35.1953 59.332L35.0195 58.1484C36.9766 58.1367 39.6133 58.1133 41.8633 57.832L41.9453 58.8984C41.1016 59.0391 40.2285 59.1387 39.3672 59.2031V61.2305H37.8672V62.6953H44.3242ZM38.4883 53.7891C40.0352 53.7773 41.1484 54.5625 41.1484 55.6992C41.1484 56.8359 40.0352 57.5742 38.4883 57.5742C36.9062 57.5742 35.8047 56.8359 35.8047 55.6992C35.8047 54.5625 36.8945 53.7773 38.4883 53.7891ZM38.4883 54.8789C37.7266 54.8789 37.2109 55.1719 37.2227 55.6992C37.2109 56.2148 37.7266 56.4961 38.4883 56.4961C39.2031 56.4961 39.7188 56.2148 39.7305 55.6992C39.7188 55.1719 39.2031 54.8789 38.4883 54.8789Z" fill="black"/>
</g>
<defs>
<clipPath id="clip0_1074_46472">
<rect width="48" height="66" fill="white" transform="translate(0.625)"/>
</clipPath>
<clipPath id="clip1_1074_46472">
<rect width="48" height="48" fill="white" transform="translate(0.625)"/>
</clipPath>
<clipPath id="clip2_1074_46472">
<rect width="48" height="48" fill="white" transform="translate(0.625)"/>
</clipPath>
</defs>
</svg>
