<svg width="49" height="66" viewBox="0 0 49 66" fill="none" xmlns="http://www.w3.org/2000/svg">
<g clip-path="url(#clip0_1074_46460)">
<g clip-path="url(#clip1_1074_46460)">
<path d="M36.625 32H32.625V30H16.625V32H12.625V30H4.625V40H44.625V30H36.625V32ZM40.625 16H34.625V12C34.625 9.8 32.825 8 30.625 8H18.625C16.425 8 14.625 9.8 14.625 12V16H8.625C6.425 16 4.625 17.8 4.625 20V28H12.625V24H16.625V28H32.625V24H36.625V28H44.625V20C44.625 17.8 42.825 16 40.625 16ZM30.625 16H18.625V12H30.625V16Z" fill="#1E1E1E"/>
</g>
<path d="M13.6445 57.9609V59.0508H9.54297V59.7188H12.4844V62.3203H6.54297V62.9062H12.7656V64.0078H5.07812V61.3125H11.0078V60.7852H5.06641V59.7188H8.05469V59.0508H3.96484V57.9609H13.6445ZM9.53125 53.4023V54.2461H12.7305V55.3477H9.71875C10.0117 55.9688 11.1016 56.4785 13.2578 56.5664L12.8242 57.668C10.8438 57.5742 9.47266 57.0703 8.79297 56.2617C8.11914 57.0703 6.74219 57.5742 4.75 57.668L4.33984 56.5664C6.47852 56.4785 7.5625 55.9688 7.86719 55.3477H4.87891V54.2461H8.05469V53.4023H9.53125ZM20.3711 54.1289V55.3242H18.25C18.2617 56.5664 19.0059 57.7676 20.7109 58.2656L19.9961 59.4375C18.8184 59.0801 18.0039 58.3652 17.5352 57.4453C17.0605 58.5234 16.1934 59.3789 14.9102 59.8008L14.1484 58.6172C15.918 58.0605 16.7148 56.6777 16.7383 55.3242H14.5586V54.1289H20.3711ZM22.7734 53.4141V55.8867H24.2148V57.1055H22.7734V59.7422H21.2734V53.4141H22.7734ZM19.2812 59.9531C21.4961 59.9414 22.8789 60.7031 22.8789 62.0039C22.8789 63.3047 21.4961 64.0781 19.2812 64.0781C17.0195 64.0781 15.625 63.3047 15.625 62.0039C15.625 60.7031 17.0195 59.9414 19.2812 59.9531ZM19.2812 61.1133C17.875 61.1133 17.1133 61.4062 17.125 62.0039C17.1133 62.6133 17.875 62.918 19.2812 62.918C20.6641 62.918 21.4023 62.6133 21.4023 62.0039C21.4023 61.4062 20.6641 61.1133 19.2812 61.1133ZM33.6719 53.4141V59.7422H32.1836V57.2227H30.5195V56.0156H32.1836V53.4141H33.6719ZM30.0273 59.9766C32.3008 59.9883 33.6953 60.7383 33.707 62.0391C33.6953 63.3281 32.3008 64.0898 30.0273 64.0898C27.7539 64.0898 26.3594 63.3281 26.3594 62.0391C26.3594 60.7383 27.7539 59.9883 30.0273 59.9766ZM30.0273 61.125C28.6094 61.125 27.8477 61.418 27.8477 62.0391C27.8477 62.6484 28.6094 62.9531 30.0273 62.9531C31.4453 62.9531 32.2188 62.6484 32.2188 62.0391C32.2188 61.418 31.4453 61.125 30.0273 61.125ZM30.8359 54.0586V55.2539H28.7148C28.75 56.4961 29.5 57.75 31.1641 58.3008L30.4258 59.4727C29.248 59.0918 28.4395 58.3184 27.9766 57.3516C27.502 58.4414 26.6523 59.3203 25.3867 59.7539L24.6133 58.5703C26.3652 57.9844 27.1504 56.5898 27.1914 55.2539H25.0469V54.0586H30.8359ZM43.9844 53.4141V64.1016H42.4727V53.4141H43.9844ZM37.082 54.2578V56.8594H39.3789V54.2578H40.8555V61.6055H35.582V54.2578H37.082ZM37.082 60.3984H39.3789V58.0195H37.082V60.3984Z" fill="black"/>
</g>
<defs>
<clipPath id="clip0_1074_46460">
<rect width="48" height="66" fill="white" transform="translate(0.625)"/>
</clipPath>
<clipPath id="clip1_1074_46460">
<rect width="48" height="48" fill="white" transform="translate(0.625)"/>
</clipPath>
</defs>
</svg>
