<svg width="49" height="66" viewBox="0 0 49 66" fill="none" xmlns="http://www.w3.org/2000/svg">
<g clip-path="url(#clip0_1067_39471)">
<g clip-path="url(#clip1_1067_39471)">
<path d="M40.9449 25.4603C42.2749 24.1321 43.2894 22.5219 43.9132 20.7487C44.537 18.9755 44.7542 17.0848 44.5487 15.2164C44.3433 13.3479 43.7204 11.5496 42.7261 9.95436C41.7319 8.35912 40.3918 7.0078 38.8049 6.00035C34.7849 3.34035 29.4049 3.32035 25.3449 5.94035C21.8249 8.20035 19.8849 11.7203 19.5449 15.3603C19.2849 18.0003 18.2849 20.4603 16.4449 22.3003L16.3849 22.3603C14.0649 24.6803 14.0649 28.2203 16.2449 30.3803L18.2249 32.3603C19.2727 33.4075 20.6935 33.9957 22.1749 33.9957C23.6563 33.9957 25.077 33.4075 26.1249 32.3603C28.0649 30.4203 30.6249 29.3603 33.4049 29.0603C36.1449 28.7603 38.8249 27.5603 40.9449 25.4603ZM13.1449 39.7203C13.6849 40.8403 13.5049 42.2003 12.5649 43.1203C12.1578 43.5336 11.6389 43.819 11.0719 43.9417C10.5049 44.0643 9.91444 44.0188 9.37295 43.8107C8.83146 43.6026 8.36248 43.2409 8.02354 42.7701C7.6846 42.2994 7.49044 41.7399 7.46487 41.1603C6.88533 41.1348 6.32586 40.9406 5.85507 40.6017C5.38429 40.2627 5.02266 39.7938 4.81456 39.2523C4.60646 38.7108 4.56093 38.1203 4.68355 37.5533C4.80617 36.9863 5.09162 36.4675 5.50487 36.0603C6.42487 35.1403 7.80487 34.9403 8.90487 35.4803L13.8649 30.6203C14.1449 31.0003 14.4649 31.4403 14.8249 31.8003L16.8049 33.7803C17.2249 34.1803 17.6249 34.5203 18.1449 34.8203L13.1449 39.7203Z" fill="black"/>
</g>
<path d="M23.3594 53.4141V64.0781H21.8594V53.4141H23.3594ZM18.6133 56.7539C18.6133 58.3008 19.4922 60.0469 21.2617 60.7734L20.4531 61.9219C19.2402 61.4238 18.373 60.4043 17.8867 59.1797C17.4121 60.4805 16.5391 61.5703 15.2969 62.0859L14.5 60.9375C16.2578 60.1758 17.125 58.3828 17.125 56.7539V56.3438H14.8516V55.1484H17.1133V53.6484H18.6016V55.1484H20.8281V56.3438H18.6133V56.7539ZM30.5547 54.1875C30.543 57.1758 29.2188 59.2148 25.5508 60.3633L24.9883 59.1914C26.5469 58.7168 27.5547 58.1074 28.1758 57.3516L25.1992 57.5859L24.9883 56.4258L28.7734 56.2969C28.873 56.0039 28.9375 55.6992 28.9727 55.3828H25.5273V54.1875H30.5547ZM33.7422 53.4258V61.1719H32.2422V53.4258H33.7422ZM34.0234 62.7188V63.9141H26.5938V60.5391H28.1055V62.7188H34.0234Z" fill="black"/>
</g>
<defs>
<clipPath id="clip0_1067_39471">
<rect width="48" height="66" fill="white" transform="translate(0.625)"/>
</clipPath>
<clipPath id="clip1_1067_39471">
<rect width="48" height="48" fill="white" transform="translate(0.625)"/>
</clipPath>
</defs>
</svg>
