<svg width="49" height="66" viewBox="0 0 49 66" fill="none" xmlns="http://www.w3.org/2000/svg">
<g clip-path="url(#clip0_1074_46452)">
<g clip-path="url(#clip1_1074_46452)">
<path d="M29.125 24C29.125 19.8581 30.4675 16.5 32.125 16.5C33.7825 16.5 35.125 19.8581 35.125 24C35.125 28.1419 33.7825 31.5 32.125 31.5C30.4675 31.5 29.125 28.1419 29.125 24ZM46.375 42C46.375 42.5967 46.1379 43.169 45.716 43.591C45.294 44.0129 44.7217 44.25 44.125 44.25H17.875C14.4062 44.25 11.2563 41.9588 9.0025 37.8C6.985 34.0763 5.875 29.175 5.875 24C5.875 18.825 6.985 13.9238 9.0025 10.2C11.2563 6.04125 14.4062 3.75 17.875 3.75H31.375C34.8438 3.75 37.9938 6.04125 40.2475 10.2C42.265 13.9238 43.375 18.825 43.375 24C43.375 29.175 42.265 34.0763 40.2475 37.8C39.8831 38.4756 39.4753 39.127 39.0269 39.75H44.125C44.7217 39.75 45.294 39.9871 45.716 40.409C46.1379 40.831 46.375 41.4033 46.375 42ZM31.375 8.25C27.8275 8.25 23.875 14.7188 23.875 24C23.875 33.2812 27.8275 39.75 31.375 39.75C34.9225 39.75 38.875 33.2812 38.875 24C38.875 14.7188 34.9225 8.25 31.375 8.25ZM10.8119 29.1731L14.3125 26.67C14.6939 26.3978 15.1508 26.2516 15.6194 26.2516C16.0879 26.2516 16.5448 26.3978 16.9263 26.67L19.675 28.6312C19.4728 27.0958 19.3726 25.5487 19.375 24C19.375 23.3231 19.3956 22.65 19.4331 21.9844L15.625 19.2656L10.3919 23.0025C10.375 23.3325 10.375 23.6644 10.375 24C10.3709 25.7338 10.517 27.4646 10.8119 29.1731ZM11.2263 16.875L14.3125 14.67C14.6939 14.3978 15.1508 14.2516 15.6194 14.2516C16.0879 14.2516 16.5448 14.3978 16.9263 14.67L20.0969 16.9331C20.5739 14.5864 21.3819 12.3193 22.4969 10.2C22.8631 9.52422 23.2727 8.87286 23.7231 8.25H17.875C15.3325 8.25 12.5819 11.5744 11.2263 16.875ZM17.875 39.75H23.7231C23.2747 39.127 22.8669 38.4756 22.5025 37.8C22.0783 37.0169 21.7026 36.2085 21.3775 35.3794L15.625 31.2656L12.0887 33.7913C13.5625 37.515 15.79 39.75 17.875 39.75Z" fill="#1E1E1E"/>
</g>
<path d="M14.4141 54.293V55.5117H10.875V57.2695H14.2617V58.4414H10.875V60.457C12.4043 60.4453 13.6465 60.3809 15.0703 60.1523L15.2109 61.3594C13.582 61.6055 12.1289 61.6523 10.2656 61.6523H9.36328V54.293H14.4141ZM17.3555 53.4141V57.457H18.9258V58.7109H17.3555V64.0781H15.8555V53.4141H17.3555ZM28.2422 53.4141V64.1016H26.7305V53.4141H28.2422ZM22.4531 54.1641C24.0586 54.1641 25.2539 55.6406 25.2539 57.9609C25.2539 60.3047 24.0586 61.7695 22.4531 61.7695C20.8125 61.7695 19.6172 60.3047 19.6289 57.9609C19.6172 55.6406 20.8125 54.1641 22.4531 54.1641ZM22.4531 55.5117C21.6211 55.5117 21.0703 56.3789 21.0703 57.9609C21.0703 59.5547 21.6211 60.4102 22.4531 60.4102C23.2617 60.4102 23.8125 59.5547 23.8125 57.9609C23.8125 56.3789 23.2617 55.5117 22.4531 55.5117ZM32.625 54.1641C34.0664 54.1641 35.1387 55.3535 35.3555 57.2695H37.207V53.4141H38.6836V64.1016H37.207V58.4648H35.3672C35.209 60.5156 34.1133 61.7695 32.625 61.7695C31.0078 61.7695 29.8477 60.3047 29.8594 57.9609C29.8477 55.6406 31.0078 54.1641 32.625 54.1641ZM32.625 55.5117C31.8281 55.5117 31.2773 56.3789 31.2891 57.9609C31.2773 59.5547 31.8281 60.4102 32.625 60.4102C33.4336 60.4102 33.9609 59.5547 33.9609 57.9609C33.9609 56.3789 33.4336 55.5117 32.625 55.5117Z" fill="black"/>
</g>
<defs>
<clipPath id="clip0_1074_46452">
<rect width="48" height="66" fill="white" transform="translate(0.625)"/>
</clipPath>
<clipPath id="clip1_1074_46452">
<rect width="48" height="48" fill="white" transform="translate(0.625)"/>
</clipPath>
</defs>
</svg>
