<svg width="122" height="68" viewBox="0 0 122 68" fill="none" xmlns="http://www.w3.org/2000/svg">
<path d="M9.6875 61.3125C4.21875 61.3125 0.9375 57.7812 0.9375 52.5625C0.9375 47.3438 4.21875 43.8125 9.6875 43.8125C14.5938 43.8125 17.7188 46.625 17.7812 51H12.2812C12.125 49.2188 11.1562 48.25 9.78125 48.25C8.09375 48.25 6.96875 49.6562 6.96875 52.5C6.96875 55.375 8.09375 56.8125 9.78125 56.8125C11.1562 56.8125 12.125 55.8438 12.2812 54.0312H17.7812C17.6875 58.4688 14.6562 61.3125 9.6875 61.3125Z" fill="white"/>
<path d="M19.5312 56.3125C19.5312 52.5625 22.3125 51.125 25.7812 50.9062L29.75 50.75V49.375C29.75 48.4375 28.9688 47.9062 27.8125 47.9062C26.5938 47.9062 25.8125 48.4375 25.6562 49.5H20.1875C20.4062 46.4062 22.9062 43.8125 27.9062 43.8125C32.625 43.8125 35.6562 46.125 35.6562 49.4062V61H30.125V58.625H30C29 60.4688 27.3125 61.2812 25.0625 61.2812C21.8125 61.2812 19.5312 59.6875 19.5312 56.3125ZM25.0938 55.9688C25.0938 56.9688 25.875 57.5 26.9688 57.5C28.4375 57.5 29.8125 56.5625 29.7812 54.9688V54.0625C29.1875 54.0781 27.625 54.1406 26.8438 54.2188C25.7812 54.3438 25.0938 55.0625 25.0938 55.9688Z" fill="white"/>
<path d="M38.6562 61V44.0312H44.375V47.2188H44.5625C45.1875 44.875 46.5938 43.8125 48.4375 43.8125C48.9688 43.8125 49.5 43.875 49.9688 44V49.0938C49.375 48.875 48.375 48.7812 47.75 48.7812C45.9062 48.7812 44.5625 50.0938 44.5625 52.0625V61H38.6562Z" fill="white"/>
<path d="M69.4375 44.0312L63.7188 61H56.875L51.1562 44.0312H57.375L60.2188 55.375H60.375L63.25 44.0312H69.4375Z" fill="white"/>
<path d="M78.7812 61.3125C73.375 61.3125 70.0625 58.0312 70.0625 52.5625C70.0625 47.3125 73.4062 43.8125 78.6562 43.8125C83.6875 43.8125 87.0312 47.0625 87.0312 52.5V53.9062H75.9062V54.125C75.9062 55.875 77.0312 57.125 78.9062 57.125C80.1875 57.125 81.2188 56.5625 81.5938 55.5938H87C86.4062 59.0938 83.4062 61.3125 78.7812 61.3125ZM75.9062 50.5938H81.5625C81.5312 49.0625 80.3438 48 78.7812 48C77.2031 48 75.9531 49.0781 75.9062 50.5938Z" fill="white"/>
<path d="M89.5625 61V44.0312H95.2812V47.2188H95.4688C96.0938 44.875 97.5 43.8125 99.3438 43.8125C99.875 43.8125 100.406 43.875 100.875 44V49.0938C100.281 48.875 99.2812 48.7812 98.6562 48.7812C96.8125 48.7812 95.4688 50.0938 95.4688 52.0625V61H89.5625Z" fill="white"/>
<path d="M106.812 67.375C105.688 67.375 104.688 67.3438 103.906 67.2812V62.875C104.719 62.9375 105.469 62.9375 106.125 62.9375C106.969 62.9375 107.562 62.8438 107.906 62.0312L108.031 61.7188L102.062 44.0312H108.219L111.062 55.875H111.25L114.156 44.0312H120.344L114.094 62.4688C113.156 65.2812 111.188 67.375 106.812 67.375Z" fill="white"/>
<path d="M14.8515 34.0002C14.8515 35.9332 13.2845 37.5002 11.3515 37.5002C9.41855 37.5002 7.85154 35.9332 7.85154 34.0002C7.85154 32.0672 9.41855 30.5002 11.3515 30.5002C13.2845 30.5002 14.8515 32.0672 14.8515 34.0002Z" fill="white"/>
<path d="M44.0445 34.0001C44.0445 35.9331 42.4775 37.5001 40.5445 37.5001C38.6115 37.5001 37.0445 35.9331 37.0445 34.0001C37.0445 32.0671 38.6115 30.5001 40.5445 30.5001C42.4775 30.5001 44.0445 32.0671 44.0445 34.0001Z" fill="white"/>
<path d="M44.1503 7.5C40.3676 5.77868 39.1505 4 38.6503 0C37.6505 4 37.1506 6.5 32.6506 7.5C36.6506 9 37.6508 11 38.6506 15C39.1508 11.5 40.3676 9.22132 44.1503 7.5Z" fill="white"/>
<path d="M52.6506 16C51.0059 15.082 50.4767 14.1333 50.2592 12C49.8245 14.1333 49.6072 15.4667 47.6506 16C49.3898 16.8 49.8247 17.8667 50.2594 20C50.4769 18.1333 51.0059 16.918 52.6506 16Z" fill="white"/>
<path d="M47.2453 33.7243C47.2165 32.9701 47.0692 32.2245 46.8083 31.5167C46.4853 30.6403 45.9946 29.8397 45.3653 29.1622C44.7361 28.4848 43.981 27.9444 43.145 27.573C42.309 27.2016 41.4091 27.0068 40.4986 27.0002C39.5881 26.9936 38.6856 27.1752 37.8446 27.5345C37.0036 27.8937 36.2412 28.4231 35.6027 29.0913C34.9642 29.7595 34.4626 30.553 34.1276 31.4245C33.8569 32.1287 33.6995 32.8722 33.6603 33.6261C33.6449 33.9233 33.894 34.1592 34.1915 34.152C34.3322 34.1486 34.4584 34.0914 34.5543 34.0007C34.661 33.8999 34.7303 33.7576 34.7406 33.6015C34.7805 32.9958 34.9112 32.3989 35.1289 31.8324C35.4109 31.0988 35.8331 30.4311 36.3704 29.8687C36.9078 29.3063 37.5495 28.8607 38.2573 28.5583C38.9651 28.256 39.7247 28.1031 40.491 28.1087C41.2573 28.1142 42.0147 28.2782 42.7183 28.5908C43.422 28.9033 44.0574 29.3582 44.587 29.9284C45.1166 30.4985 45.5296 31.1724 45.8015 31.9099C45.9867 32.4125 46.1039 32.9376 46.1506 33.4707C46.1569 33.542 46.1618 33.6134 46.1656 33.685C46.181 33.9815 46.4099 34.2314 46.7066 34.2429C47.0042 34.2544 47.2567 34.0219 47.2453 33.7243Z" fill="white"/>
<path fill-rule="evenodd" clip-rule="evenodd" d="M17.8083 31.5167C18.0692 32.2245 18.2165 32.9701 18.2453 33.7243C18.2567 34.0219 18.0042 34.2544 17.7066 34.2429C17.4099 34.2314 17.181 33.9815 17.1656 33.685C17.1618 33.6117 17.1566 33.5385 17.1502 33.4655L17.1502 33.5187C17.1537 34.0085 17.298 34.3417 17.6506 34.5H34.1506C34.3688 34.4588 34.476 34.3016 34.5543 34.0007C34.4584 34.0914 34.3322 34.1486 34.1915 34.152C33.894 34.1592 33.6449 33.9233 33.6603 33.6261C33.6995 32.8722 33.8569 32.1287 34.1276 31.4245C34.4626 30.553 34.9642 29.7595 35.6027 29.0913C36.2412 28.4231 37.0036 27.8937 37.8446 27.5345C38.6856 27.1752 39.5881 26.9936 40.4986 27.0002C41.4091 27.0068 42.309 27.2016 43.145 27.573C43.981 27.9444 44.7361 28.4848 45.3653 29.1622C45.9946 29.8397 46.4853 30.6403 46.8083 31.5167C47.0692 32.2245 47.2165 32.9701 47.2453 33.7243C47.2567 34.0219 47.0042 34.2544 46.7066 34.2429C46.4099 34.2314 46.181 33.9815 46.1656 33.685C46.1618 33.6134 46.1569 33.542 46.1506 33.4707L46.1507 34C46.1413 34.5017 46.6545 34.5219 47.6507 34.5C48.3934 34.4201 48.7564 34.3307 49.1507 34C49.9147 33.2448 50.1276 32.8065 50.1504 32.0001V29.5001C49.7559 27.8841 49.4697 27.0416 48.6504 26.0001C47.578 24.8021 46.7682 24.2816 45.1504 23.5001C43.3077 22.9127 42.1878 22.5756 40.1504 22.0001C38.7011 21.3636 37.9239 20.7821 36.6504 19.5001L32.1504 15.5001C30.264 13.9569 29.0092 13.4125 26.6504 13.0001L16.6504 13C14.5839 12.8759 13.5308 13.1204 11.6504 14C9.85193 14.9053 8.64668 15.8931 6.15039 18.5C4.14561 21.209 3.38852 22.8543 2.65009 26C2.26356 27.8805 1.73827 29.023 2.15009 32C2.49713 33.3358 3.15531 33.8198 4.65009 34.5C5.0944 34.6042 5.37295 34.503 5.52098 34.0299C5.42992 34.1035 5.31642 34.1489 5.19152 34.152C4.89395 34.1592 4.64488 33.9233 4.66033 33.6261C4.6995 32.8722 4.85694 32.1287 5.1276 31.4245C5.46261 30.553 5.96423 29.7595 6.60273 29.0913C7.24122 28.4231 8.00358 27.8937 8.84459 27.5345C9.68559 27.1752 10.5881 26.9936 11.4986 27.0002C12.4091 27.0068 13.309 27.2016 14.145 27.573C14.981 27.9444 15.7361 28.4848 16.3653 29.1622C16.9946 29.8397 17.4853 30.6403 17.8083 31.5167ZM16.653 23H9.15298C8.39499 23.0494 8.07014 22.9093 8.15103 22.5C8.15212 22.2444 8.48107 21.8185 9.15298 21L11.1507 19C12.821 17.666 14.0396 17.0469 15.153 17H17.153C17.8425 17.0036 18.0428 17.0915 18.153 17.5V22.5C18.0833 22.947 17.6883 23.0244 16.653 23ZM32.6506 23H20.6506C19.82 23.015 19.619 22.6373 19.6506 22V17.5C19.7419 17.1591 19.7434 16.9177 21.1506 17L26.6506 17C27.2638 16.8803 29.0637 18.2327 33.1506 21.5C34.1472 22.3871 34.2572 23.083 32.6506 23Z" fill="white"/>
<path d="M18.2453 33.7243C18.2165 32.9701 18.0692 32.2245 17.8083 31.5167C17.4853 30.6403 16.9946 29.8397 16.3653 29.1622C15.7361 28.4848 14.981 27.9444 14.145 27.573C13.309 27.2016 12.4091 27.0068 11.4986 27.0002C10.5881 26.9936 9.68559 27.1752 8.84459 27.5345C8.00358 27.8937 7.24122 28.4231 6.60273 29.0913C5.96423 29.7595 5.46261 30.553 5.1276 31.4245C4.85694 32.1287 4.6995 32.8722 4.66033 33.6261C4.64488 33.9233 4.89395 34.1592 5.19152 34.152C5.31642 34.1489 5.42992 34.1035 5.52098 34.0299C5.64643 33.9284 5.72927 33.7733 5.74058 33.6015C5.78047 32.9958 5.91116 32.3989 6.12892 31.8324C6.41087 31.0988 6.83306 30.4311 7.37045 29.8687C7.90783 29.3063 8.54946 28.8607 9.25728 28.5583C9.9651 28.256 10.7247 28.1031 11.491 28.1087C12.2573 28.1142 13.0147 28.2782 13.7183 28.5908C14.422 28.9033 15.0574 29.3582 15.587 29.9284C16.1166 30.4985 16.5296 31.1724 16.8015 31.9099C16.9861 32.4109 17.1031 32.9343 17.1502 33.4655C17.1566 33.5385 17.1618 33.6117 17.1656 33.685C17.181 33.9815 17.4099 34.2314 17.7066 34.2429C18.0042 34.2544 18.2567 34.0219 18.2453 33.7243Z" fill="white"/>
<path d="M0 40H122V41H0V40Z" fill="white"/>
</svg>
